<?xml version="1.0" standalone="no"?>
<!DOCTYPE svg PUBLIC "-//W3C//DTD SVG 20010904//EN"
 "http://www.w3.org/TR/2001/REC-SVG-20010904/DTD/svg10.dtd">
<svg version="1.0" xmlns="http://www.w3.org/2000/svg"
 width="50.000000pt" height="50.000000pt" viewBox="0 0 50.000000 50.000000"
 preserveAspectRatio="xMidYMid meet">

<g transform="translate(0.000000,50.000000) scale(0.100000,-0.100000)"
fill="#000000" stroke="none">
<path d="M170 477 c-49 -16 -133 -102 -148 -153 -28 -94 -8 -169 63 -239 101
-102 229 -102 330 0 102 101 102 229 0 330 -70 71 -152 91 -245 62z m40 -45
c0 -34 -4 -40 -36 -56 -33 -15 -38 -16 -61 -1 -13 9 -22 22 -20 28 3 10 100
67 113 67 2 0 4 -17 4 -38z m60 3 c0 -28 -4 -35 -20 -35 -16 0 -20 7 -20 35 0
28 4 35 20 35 16 0 20 -7 20 -35z m107 -6 c39 -25 41 -33 9 -54 -22 -14 -27
-14 -60 1 -32 16 -36 22 -36 56 0 37 1 37 27 27 15 -6 42 -19 60 -30z m-48
-77 c58 -43 64 -140 12 -193 -76 -75 -204 -30 -217 77 -14 110 115 183 205
116z m-224 6 c27 -12 29 -16 16 -36 -12 -20 -73 12 -65 33 7 18 15 19 49 3z
m339 -3 c8 -21 -53 -53 -65 -33 -6 9 -2 19 12 31 26 21 45 22 53 2z m-366 -51
c33 -23 31 -88 -4 -110 -22 -15 -27 -15 -35 -3 -10 16 -12 89 -3 113 8 20 14
20 42 0z m386 0 c9 -23 7 -97 -3 -113 -7 -11 -13 -10 -35 4 -35 23 -37 85 -3
108 28 20 34 20 41 1z m-340 -130 c7 -19 8 -17 -21 -33 -29 -15 -40 -14 -47 4
-3 9 5 20 22 29 35 19 39 19 46 0z m296 1 c29 -15 33 -45 6 -45 -22 0 -55 30
-50 45 7 18 8 18 44 0z m-245 -52 c31 -15 35 -21 35 -55 0 -37 -1 -37 -27 -27
-39 15 -93 49 -93 59 0 7 39 40 47 40 1 0 18 -8 38 -17z m213 1 c12 -8 22 -19
22 -24 0 -10 -54 -44 -93 -59 -26 -10 -27 -10 -27 27 0 33 4 41 33 55 41 20
38 20 65 1z m-118 -59 c0 -28 -4 -35 -20 -35 -16 0 -20 7 -20 35 0 28 4 35 20
35 16 0 20 -7 20 -35z"/>
</g>
</svg>
