<?xml version="1.0" standalone="no"?>
<!DOCTYPE svg PUBLIC "-//W3C//DTD SVG 20010904//EN"
 "http://www.w3.org/TR/2001/REC-SVG-20010904/DTD/svg10.dtd">
<svg version="1.0" xmlns="http://www.w3.org/2000/svg"
 width="436.000000pt" height="402.000000pt" viewBox="0 0 436.000000 402.000000"
 preserveAspectRatio="xMidYMid meet">

<g transform="translate(0.000000,402.000000) scale(0.100000,-0.100000)"
fill="#000000" stroke="none">
<path d="M2099 3623 c-76 -111 -232 -316 -326 -428 -55 -66 -156 -185 -222
-265 -67 -79 -151 -183 -187 -231 l-65 -87 -77 28 c-86 31 -251 74 -258 67 -3
-2 163 -109 368 -238 205 -128 449 -282 542 -342 93 -59 179 -113 190 -119 12
-6 -27 36 -86 94 -81 78 -114 119 -134 162 -43 94 -24 144 134 346 45 57 94
128 109 157 16 29 31 53 34 53 8 0 134 -130 214 -220 217 -245 378 -495 415
-643 l12 -47 30 18 c17 9 54 43 84 75 133 143 177 333 119 514 -48 152 -127
260 -384 528 -187 193 -389 459 -445 583 -10 23 -23 42 -27 42 -4 0 -23 -21
-40 -47z"/>
<path d="M3035 2525 c41 -102 49 -137 53 -236 7 -175 -40 -305 -155 -429 -76
-82 -149 -129 -258 -165 -74 -25 -89 -27 -200 -23 -100 4 -136 10 -218 37
-207 68 -433 184 -847 434 -331 201 -474 262 -592 255 l-52 -3 40 -26 c21 -14
83 -61 136 -103 l97 -76 -34 -73 c-99 -217 -143 -445 -114 -601 52 -285 297
-386 686 -285 106 28 113 39 25 39 -157 0 -274 49 -320 135 -11 20 -16 54 -15
105 0 80 21 148 81 265 56 109 42 110 172 -6 221 -196 405 -332 580 -429 l75
-41 -60 6 c-33 3 -75 9 -92 12 -22 3 -33 1 -33 -7 0 -7 -18 -50 -40 -97 -95
-204 -229 -347 -380 -410 l-55 -23 644 0 c354 0 642 2 640 4 -2 3 -49 27 -104
55 -111 56 -194 117 -247 182 -39 49 -84 129 -97 177 l-9 31 117 -6 c147 -7
239 11 366 72 161 77 293 224 355 394 34 92 52 219 44 300 -7 69 7 55 36 -37
99 -316 -74 -651 -397 -768 l-68 -24 106 4 c200 9 342 78 425 208 85 133 88
355 8 603 -34 105 -127 298 -193 404 -61 97 -117 175 -106 146z"/>
</g>
</svg>
